<svg width="535" height="239" xmlns="http://www.w3.org/2000/svg" xmlns:xlink="http://www.w3.org/1999/xlink" xml:space="preserve" overflow="hidden"><g><path d="M0 155.618 480.562 155.618 480.562 238.858-2.42949e-05 238.858Z" stroke="#0D4964" stroke-width="0.200629" stroke-linecap="square" stroke-miterlimit="3" fill="#EAF8FD" fill-rule="evenodd" transform="matrix(1.00077 0 0 1 36.9947 -30.4315)"/><path d="M0 165.609 94.684 165.609 94.684 238.859 9.30652e-07 238.859Z" stroke="#0D4964" stroke-width="0.200629" stroke-linecap="square" stroke-miterlimit="3" fill="#D9F2D0" fill-rule="evenodd" transform="matrix(1.00077 0 0 1 178.434 -136.421)"/><path d="M0 196.878 65.9706 196.878 65.9706 238.859-2.6842e-06 238.859Z" stroke="#000000" stroke-width="0.802516" stroke-linecap="square" stroke-miterlimit="3" fill="#FFFFFF" fill-rule="evenodd" transform="matrix(1.00077 0 0 1 193.511 -139.936)"/><text font-family="DengXian,DengXian_MSFontService,sans-serif" font-weight="400" font-size="10" transform="matrix(0.803132 0 0 0.802516 219.645 71)">VLA</text><text font-family="DengXian,DengXian_MSFontService,sans-serif" font-weight="400" font-size="10" transform="matrix(0.803132 0 0 0.802516 198.41 80)">输入物体大小及</text><text font-family="DengXian,DengXian_MSFontService,sans-serif" font-weight="400" font-size="10" transform="matrix(0.803132 0 0 0.802516 210.457 90)">预设刚度</text><path d="M0 196.878 65.9706 196.878 65.9706 238.859-2.6842e-06 238.859Z" stroke="#000000" stroke-width="0.802516" stroke-linecap="square" stroke-miterlimit="3" fill="#FFFFFF" fill-rule="evenodd" transform="matrix(1.00077 0 0 1 193.511 -44.9095)"/><text font-family="DengXian,DengXian_MSFontService,sans-serif" font-weight="400" font-size="10" transform="matrix(0.803132 0 0 0.802516 202.425 175)">小型神经网络</text><path d="M0 196.878 73.9326 196.878 73.9326 238.859-4.40835e-07 238.859Z" stroke="#000000" stroke-width="0.802516" stroke-linecap="square" stroke-miterlimit="3" fill="#FFFFFF" fill-rule="evenodd" transform="matrix(1.00077 0 0 1 54.0691 -44.9095)"/><text font-family="DengXian,DengXian_MSFontService,sans-serif" font-weight="400" font-size="10" transform="matrix(0.803132 0 0 0.802516 58.9361 171)">灵巧手以特定速度</text><text font-family="DengXian,DengXian_MSFontService,sans-serif" font-weight="400" font-size="10" transform="matrix(0.803132 0 0 0.802516 62.9517 180)">合拢</text><text font-family="DengXian,DengXian_MSFontService,sans-serif" font-weight="400" font-size="10" transform="matrix(0.803132 0 0 0.802516 79.0144 180)">，</text><text font-family="DengXian,DengXian_MSFontService,sans-serif" font-weight="400" font-size="10" transform="matrix(0.803132 0 0 0.802516 87.0458 180)">寻找物体</text><path d="M5.68984 238.861 5.68984 286.257" stroke="#156082" stroke-width="0.802516" stroke-linecap="round" stroke-linejoin="round" stroke-miterlimit="3" fill="none" fill-rule="evenodd" transform="matrix(1.00077 0 0 1 220.83 -139.936)"/><path d="M5.64971 2.82486 0 0 5.64971-2.82486 5.64971 2.82486" stroke="#156082" stroke-width="0.802516" stroke-linecap="square" stroke-miterlimit="3" fill="#156082" fill-rule="evenodd" transform="matrix(-6.12794e-17 -1 1.00077 -6.12323e-17 226.524 151.971)"/><path d="M-23.8417 249.897 37.491 249.897 37.491 257.601-23.8417 257.601Z" fill="#FFFFFF" fill-rule="evenodd" transform="matrix(1.00077 0 0 1 220.83 -139.936)"/><text font-family="DengXian,DengXian_MSFontService,sans-serif" font-weight="400" font-size="7.99997" transform="matrix(0.803132 0 0 0.802516 196.969 116)">预设灵巧手位姿与</text><text font-family="DengXian,DengXian_MSFontService,sans-serif" font-weight="400" font-size="7.99997" transform="matrix(0.803132 0 0 0.802516 248.369 116)">K</text><text font-family="DengXian,DengXian_MSFontService,sans-serif" font-weight="400" font-size="7.99997" transform="matrix(0.803132 0 0 0.802516 251.924 116)">值</text><path d="M0 233.171 59.7553 233.171" stroke="#156082" stroke-width="0.802516" stroke-linecap="round" stroke-linejoin="round" stroke-miterlimit="3" fill="none" fill-rule="evenodd" transform="matrix(1.00077 0 0 1 128.059 -60.213)"/><path d="M5.64971 2.82486 0 0 5.64971-2.82486 5.64971 2.82486" stroke="#156082" stroke-width="0.802516" stroke-linecap="square" stroke-miterlimit="3" fill="#156082" fill-rule="evenodd" transform="matrix(-1.00077 0 0 -1 193.514 172.958)"/><path d="M13.4407 229.32 51.9613 229.32 51.9613 237.024 13.4407 237.024Z" fill="#FFFFFF" fill-rule="evenodd" transform="matrix(1.00077 0 0 1 128.059 -60.213)"/><text font-family="DengXian,DengXian_MSFontService,sans-serif" font-weight="400" font-size="7.99997" transform="matrix(0.803132 0 0 0.802516 141.511 175)">判定接触物体</text><path d="M0 196.878 65.9706 196.878 65.9706 238.859-2.6842e-06 238.859Z" stroke="#000000" stroke-width="0.802516" stroke-linecap="square" stroke-miterlimit="3" fill="#FFFFFF" fill-rule="evenodd" transform="matrix(1.00077 0 0 1 307.34 -44.9095)"/><text font-family="DengXian,DengXian_MSFontService,sans-serif" font-weight="400" font-size="10" transform="matrix(0.803132 0 0 0.802516 324.286 171)">残差控制</text><text font-family="DengXian,DengXian_MSFontService,sans-serif" font-weight="400" font-size="10" transform="matrix(0.803132 0 0 0.802516 314.038 180)">位置与</text><text font-family="DengXian,DengXian_MSFontService,sans-serif" font-weight="400" font-size="10" transform="matrix(0.803132 0 0 0.802516 338.132 180)">K</text><text font-family="DengXian,DengXian_MSFontService,sans-serif" font-weight="400" font-size="10" transform="matrix(0.803132 0 0 0.802516 342.575 180)">值输出</text><path d="M0 233.171 42.1241 233.171" stroke="#156082" stroke-width="0.802516" stroke-linecap="round" stroke-linejoin="round" stroke-miterlimit="3" fill="none" fill-rule="evenodd" transform="matrix(1.00077 0 0 1 259.532 -60.213)"/><path d="M5.64971 2.82486 0 0 5.64971-2.82486 5.64971 2.82486" stroke="#156082" stroke-width="0.802516" stroke-linecap="square" stroke-miterlimit="3" fill="#156082" fill-rule="evenodd" transform="matrix(-1.00077 0 0 -1 307.343 172.958)"/><path d="M0 196.878 65.9706 196.878 65.9706 238.859-2.6842e-06 238.859Z" stroke="#000000" stroke-width="0.802516" stroke-linecap="square" stroke-miterlimit="3" fill="#FFFFFF" fill-rule="evenodd" transform="matrix(1.00077 0 0 1 443.936 -44.9095)"/><text font-family="DengXian,DengXian_MSFontService,sans-serif" font-weight="400" font-size="10" transform="matrix(0.803132 0 0 0.802516 452.851 175)">抓取柔性物体</text><path d="M0 233.171 64.8673 233.171" stroke="#156082" stroke-width="0.802516" stroke-linecap="round" stroke-linejoin="round" stroke-miterlimit="3" fill="none" fill-rule="evenodd" transform="matrix(1.00077 0 0 1 373.362 -60.213)"/><path d="M5.64971 2.82486 0 0 5.64971-2.82486 5.64971 2.82486" stroke="#156082" stroke-width="0.802516" stroke-linecap="square" stroke-miterlimit="3" fill="#156082" fill-rule="evenodd" transform="matrix(-1.00077 0 0 -1 443.933 172.958)"/><path d="M0 238.861 0 186.826-183.126 186.826-183.126 212.217" stroke="#156082" stroke-width="0.802516" stroke-linecap="round" stroke-linejoin="round" stroke-miterlimit="3" fill="none" fill-rule="evenodd" transform="matrix(1.00077 0 0 1 409.787 -65.9001)"/><path d="M5.64971 2.82486 0 0 5.64971-2.82486 5.64971 2.82486" stroke="#156082" stroke-width="0.802516" stroke-linecap="square" stroke-miterlimit="3" fill="#156082" fill-rule="evenodd" transform="matrix(-6.12794e-17 -1 1.00077 -6.12323e-17 226.52 151.967)"/><path d="M-135.638 182.97-26.4967 182.97-26.4967 190.674-135.638 190.674Z" fill="#FFFFFF" fill-rule="evenodd" transform="matrix(1.00077 0 0 1 409.787 -65.9001)"/><text font-family="DengXian,DengXian_MSFontService,sans-serif" font-weight="400" font-size="7.99997" transform="matrix(0.803132 0 0 0.802516 274.042 123)">传回位置</text><text font-family="DengXian,DengXian_MSFontService,sans-serif" font-weight="400" font-size="7.99997" transform="matrix(0.803132 0 0 0.802516 299.742 123)">、</text><text font-family="DengXian,DengXian_MSFontService,sans-serif" font-weight="400" font-size="7.99997" transform="matrix(0.803132 0 0 0.802516 306.167 123)">电流</text><text font-family="DengXian,DengXian_MSFontService,sans-serif" font-weight="400" font-size="7.99997" transform="matrix(0.803132 0 0 0.802516 319.017 123)">、</text><text font-family="DengXian,DengXian_MSFontService,sans-serif" font-weight="400" font-size="7.99997" transform="matrix(0.803132 0 0 0.802516 325.442 123)">力等参量</text><text font-family="DengXian,DengXian_MSFontService,sans-serif" font-weight="400" font-size="7.99997" transform="matrix(0.803132 0 0 0.802516 351.142 123)">，</text><text font-family="DengXian,DengXian_MSFontService,sans-serif" font-weight="400" font-size="7.99997" transform="matrix(0.803132 0 0 0.802516 357.567 123)">闭环控制</text><text font-family="DengXian,DengXian_MSFontService,sans-serif" font-weight="700" font-size="13.9999" transform="matrix(0.803132 0 0 0.802516 188.995 46)">顶层</text><text font-family="DengXian,DengXian_MSFontService,sans-serif" font-weight="700" font-size="13.9999" transform="matrix(0.803132 0 0 0.802516 211.483 46)">VLA</text><text font-family="DengXian,DengXian_MSFontService,sans-serif" font-weight="700" font-size="13.9999" transform="matrix(0.803132 0 0 0.802516 231.742 46)">/</text><text font-family="DengXian,DengXian_MSFontService,sans-serif" font-weight="700" font-size="13.9999" transform="matrix(0.803132 0 0 0.802516 236.392 46)">VLM</text><text font-family="DengXian,DengXian_MSFontService,sans-serif" font-weight="700" font-size="13.9999" transform="matrix(0.803132 0 0 0.802516 56.5544 140)">底层控制器</text></g></svg>