<svg width="554" height="457" xmlns="http://www.w3.org/2000/svg" xmlns:xlink="http://www.w3.org/1999/xlink" xml:space="preserve" overflow="hidden"><g><path d="M0 338.871 454.366 338.871 454.366 456.78-1.16832e-05 456.78Z" stroke="#0D4964" stroke-width="0.244154" stroke-linecap="square" stroke-miterlimit="3" fill="#EAF8FD" fill-rule="evenodd" transform="matrix(1.00059 0 0 1 71.6661 -24.8057)"/><path d="M0 355.481 115.225 355.481 115.225 456.78 1.13255e-06 456.78Z" stroke="#0D4964" stroke-width="0.244154" stroke-linecap="square" stroke-miterlimit="3" fill="#D9F2D0" fill-rule="evenodd" transform="matrix(1.00059 0 0 1 72.02 -318.252)"/><path d="M0 405.691 80.2826 405.691 80.2826 456.78-3.26652e-06 456.78Z" stroke="#000000" stroke-width="0.976618" stroke-linecap="square" stroke-miterlimit="3" fill="#FFFFFF" fill-rule="evenodd" transform="matrix(1.00059 0 0 1 90.8868 -332.094)"/><text font-family="DengXian,DengXian_MSFontService,sans-serif" font-weight="400" font-size="10" transform="matrix(0.977195 0 0 0.976618 122.685 90)">VLA</text><text font-family="DengXian,DengXian_MSFontService,sans-serif" font-weight="400" font-size="10" transform="matrix(0.977195 0 0 0.976618 96.8477 102)">输入动作指令与</text><text font-family="DengXian,DengXian_MSFontService,sans-serif" font-weight="400" font-size="10" transform="matrix(0.977195 0 0 0.976618 111.506 114)">相关参数</text><path d="M0 405.691 80.2826 405.691 80.2826 456.78-3.26652e-06 456.78Z" stroke="#000000" stroke-width="0.976618" stroke-linecap="square" stroke-miterlimit="3" fill="#FFFFFF" fill-rule="evenodd" transform="matrix(1.00059 0 0 1 293.62 -59.5361)"/><text font-family="DengXian,DengXian_MSFontService,sans-serif" font-weight="400" font-size="10" transform="matrix(0.977195 0 0 0.976618 304.466 375)">小型神经网络</text><path d="M0 405.691 89.9719 405.691 89.9719 456.78-5.36472e-07 456.78Z" stroke="#000000" stroke-width="0.976618" stroke-linecap="square" stroke-miterlimit="3" fill="#FFFFFF" fill-rule="evenodd" transform="matrix(1.00059 0 0 1 123.957 -59.5361)"/><text font-family="DengXian,DengXian_MSFontService,sans-serif" font-weight="400" font-size="10" transform="matrix(0.977195 0 0 0.976618 128.032 363)">未接触物体</text><text font-family="DengXian,DengXian_MSFontService,sans-serif" font-weight="400" font-size="10" transform="matrix(0.977195 0 0 0.976618 176.892 363)">/</text><text font-family="DengXian,DengXian_MSFontService,sans-serif" font-weight="400" font-size="10" transform="matrix(0.977195 0 0 0.976618 180.585 363)">未造成</text><text font-family="DengXian,DengXian_MSFontService,sans-serif" font-weight="400" font-size="10" transform="matrix(0.977195 0 0 0.976618 129.684 375)">过大压力</text><text font-family="DengXian,DengXian_MSFontService,sans-serif" font-weight="400" font-size="10" transform="matrix(0.977195 0 0 0.976618 168.771 375)">，</text><text font-family="DengXian,DengXian_MSFontService,sans-serif" font-weight="400" font-size="10" transform="matrix(0.977195 0 0 0.976618 178.543 375)">RL</text><text font-family="DengXian,DengXian_MSFontService,sans-serif" font-weight="400" font-size="10" transform="matrix(0.977195 0 0 0.976618 188.716 375)">不介</text><text font-family="DengXian,DengXian_MSFontService,sans-serif" font-weight="400" font-size="10" transform="matrix(0.977195 0 0 0.976618 164.081 386)">入</text><path d="M0 456.784-35.461 456.784-35.461 641.159 75.727 641.159C75.727 639.884 76.761 638.85 78.0367 638.85 79.3123 638.85 80.3464 639.884 80.3464 641.159L242.758 641.159 242.758 696.915" stroke="#156082" stroke-width="0.976618" stroke-linecap="round" stroke-linejoin="round" stroke-miterlimit="3" fill="none" fill-rule="evenodd" transform="matrix(1.00059 0 0 1 90.8868 -357.639)"/><path d="M6.87539 3.4377 0 0 6.87539-3.4377 6.87539 3.4377" stroke="#156082" stroke-width="0.976618" stroke-linecap="square" stroke-miterlimit="3" fill="#156082" fill-rule="evenodd" transform="matrix(-6.12685e-17 -1 1.00059 -6.12323e-17 333.788 346.151)"/><path d="M227.49 662.192 255.252 662.192 255.252 671.567 227.49 671.567Z" fill="#FFFFFF" fill-rule="evenodd" transform="matrix(1.00059 0 0 1 90.8868 -357.639)"/><text font-family="DengXian,DengXian_MSFontService,sans-serif" font-weight="400" font-size="7.99997" transform="matrix(0.977195 0 0 0.976618 318.515 312)">预设</text><text font-family="DengXian,DengXian_MSFontService,sans-serif" font-weight="400" font-size="7.99997" transform="matrix(0.977195 0 0 0.976618 334.15 312)">K</text><text font-family="DengXian,DengXian_MSFontService,sans-serif" font-weight="400" font-size="7.99997" transform="matrix(0.977195 0 0 0.976618 338.474 312)">值</text><path d="M0 449.86 72.719 449.86" stroke="#156082" stroke-width="0.976618" stroke-linecap="round" stroke-linejoin="round" stroke-miterlimit="3" fill="none" fill-rule="evenodd" transform="matrix(1.00059 0 0 1 213.982 -78.1597)"/><path d="M6.87539 3.4377 0 0 6.87539-3.4377 6.87539 3.4377" stroke="#156082" stroke-width="0.976618" stroke-linecap="square" stroke-miterlimit="3" fill="#156082" fill-rule="evenodd" transform="matrix(-1.00059 0 0 -1 293.624 371.7)"/><path d="M16.3566 445.172 63.2341 445.172 63.2341 454.547 16.3566 454.547Z" fill="#FFFFFF" fill-rule="evenodd" transform="matrix(1.00059 0 0 1 213.982 -78.1597)"/><text font-family="DengXian,DengXian_MSFontService,sans-serif" font-weight="400" font-size="7.99997" transform="matrix(0.977195 0 0 0.976618 230.35 374)">判定接触物体</text><path d="M0 405.691 80.2826 405.691 80.2826 456.78-3.26652e-06 456.78Z" stroke="#000000" stroke-width="0.976618" stroke-linecap="square" stroke-miterlimit="3" fill="#FFFFFF" fill-rule="evenodd" transform="matrix(1.00059 0 0 1 432.12 -59.5361)"/><text font-family="DengXian,DengXian_MSFontService,sans-serif" font-weight="400" font-size="10" transform="matrix(0.977195 0 0 0.976618 452.739 369)">残差控制</text><text font-family="DengXian,DengXian_MSFontService,sans-serif" font-weight="400" font-size="10" transform="matrix(0.977195 0 0 0.976618 440.27 380)">位置与</text><text font-family="DengXian,DengXian_MSFontService,sans-serif" font-weight="400" font-size="10" transform="matrix(0.977195 0 0 0.976618 469.586 380)">K</text><text font-family="DengXian,DengXian_MSFontService,sans-serif" font-weight="400" font-size="10" transform="matrix(0.977195 0 0 0.976618 474.992 380)">值输出</text><path d="M0 449.86 51.2627 449.86" stroke="#156082" stroke-width="0.976618" stroke-linecap="round" stroke-linejoin="round" stroke-miterlimit="3" fill="none" fill-rule="evenodd" transform="matrix(1.00059 0 0 1 373.95 -78.1597)"/><path d="M6.87539 3.4377 0 0 6.87539-3.4377 6.87539 3.4377" stroke="#156082" stroke-width="0.976618" stroke-linecap="square" stroke-miterlimit="3" fill="#156082" fill-rule="evenodd" transform="matrix(-1.00059 0 0 -1 432.122 371.7)"/><path d="M0 405.691 80.2826 405.691 80.2826 456.78-3.26652e-06 456.78Z" stroke="#000000" stroke-width="0.976618" stroke-linecap="square" stroke-miterlimit="3" fill="#FFFFFF" fill-rule="evenodd" transform="matrix(1.00059 0 0 1 432.12 -332.094)"/><text font-family="DengXian,DengXian_MSFontService,sans-serif" font-weight="400" font-size="10" transform="matrix(0.977195 0 0 0.976618 442.967 102)">柔性执行任务</text><path d="M0 463.698 0 486.112-138.416 486.112-138.416 470.574" stroke="#156082" stroke-width="0.976618" stroke-linecap="round" stroke-linejoin="round" stroke-miterlimit="3" fill="none" fill-rule="evenodd" transform="matrix(1.00059 0 0 1 472.285 -66.457)"/><path d="M6.87539 3.4377 0 0 6.87539-3.4377 6.87539 3.4377" stroke="#156082" stroke-width="0.976618" stroke-linecap="square" stroke-miterlimit="3" fill="#156082" fill-rule="evenodd" transform="matrix(-6.12685e-17 1 -1.00059 -6.12323e-17 333.787 397.241)"/><path d="M-136.581 481.777-30.6912 481.777-30.6912 491.153-136.581 491.153Z" fill="#FFFFFF" fill-rule="evenodd" transform="matrix(1.00059 0 0 1 472.285 -66.457)"/><text font-family="DengXian,DengXian_MSFontService,sans-serif" font-weight="400" font-size="7.99997" transform="matrix(0.977195 0 0 0.976618 335.624 422)">传回位置</text><text font-family="DengXian,DengXian_MSFontService,sans-serif" font-weight="400" font-size="7.99997" transform="matrix(0.977195 0 0 0.976618 366.894 422)">、</text><text font-family="DengXian,DengXian_MSFontService,sans-serif" font-weight="400" font-size="7.99997" transform="matrix(0.977195 0 0 0.976618 374.712 422)">K</text><text font-family="DengXian,DengXian_MSFontService,sans-serif" font-weight="400" font-size="7.99997" transform="matrix(0.977195 0 0 0.976618 379.037 422)">值参量</text><text font-family="DengXian,DengXian_MSFontService,sans-serif" font-weight="400" font-size="7.99997" transform="matrix(0.977195 0 0 0.976618 402.489 422)">，</text><text font-family="DengXian,DengXian_MSFontService,sans-serif" font-weight="400" font-size="7.99997" transform="matrix(0.977195 0 0 0.976618 410.307 422)">闭环控制</text><text font-family="DengXian,DengXian_MSFontService,sans-serif" font-weight="700" font-size="13.9999" transform="matrix(0.977195 0 0 0.976618 81.761 57)">顶层</text><text font-family="DengXian,DengXian_MSFontService,sans-serif" font-weight="700" font-size="13.9999" transform="matrix(0.977195 0 0 0.976618 109.122 57)">VLA</text><text font-family="DengXian,DengXian_MSFontService,sans-serif" font-weight="700" font-size="13.9999" transform="matrix(0.977195 0 0 0.976618 133.771 57)">/</text><text font-family="DengXian,DengXian_MSFontService,sans-serif" font-weight="700" font-size="13.9999" transform="matrix(0.977195 0 0 0.976618 139.429 57)">VLM</text><text font-family="DengXian,DengXian_MSFontService,sans-serif" font-weight="700" font-size="13.9999" transform="matrix(0.977195 0 0 0.976618 78.8429 332)">底层控制器</text><path d="M0 355.481 163.687 355.481 163.687 456.78 2.74197e-06 456.78Z" stroke="#0D4964" stroke-width="0.244154" stroke-linecap="square" stroke-miterlimit="3" fill="#FAE2D6" fill-rule="evenodd" transform="matrix(1.00059 0 0 1 71.6661 -189.269)"/><path d="M0 405.691 89.9719 405.691 89.9719 456.78-5.36472e-07 456.78Z" stroke="#000000" stroke-width="0.976618" stroke-linecap="square" stroke-miterlimit="3" fill="#FFFFFF" fill-rule="evenodd" transform="matrix(1.00059 0 0 1 123.957 -207.39)"/><text font-family="DengXian,DengXian_MSFontService,sans-serif" font-weight="400" font-size="10" transform="matrix(0.977195 0 0 0.976618 131.286 221)">接收</text><text font-family="DengXian,DengXian_MSFontService,sans-serif" font-weight="400" font-size="10" transform="matrix(0.977195 0 0 0.976618 150.83 221)">VLA</text><text font-family="DengXian,DengXian_MSFontService,sans-serif" font-weight="400" font-size="10" transform="matrix(0.977195 0 0 0.976618 167.568 221)">指令进行</text><text font-family="DengXian,DengXian_MSFontService,sans-serif" font-weight="400" font-size="10" transform="matrix(0.977195 0 0 0.976618 149.423 233)">相关操作</text><text font-family="DengXian,DengXian_MSFontService,sans-serif" font-weight="700" font-size="13.9999" transform="matrix(0.977195 0 0 0.976618 78.0905 184)">中层</text><text font-family="DengXian,DengXian_MSFontService,sans-serif" font-weight="700" font-size="13.9999" transform="matrix(0.977195 0 0 0.976618 105.452 184)">CL</text><text font-family="DengXian,DengXian_MSFontService,sans-serif" font-weight="700" font-size="13.9999" transform="matrix(0.977195 0 0 0.976618 120.635 184)">控制</text><path d="M6.92422 456.784 6.92422 546.672" stroke="#156082" stroke-width="0.976618" stroke-linecap="round" stroke-linejoin="round" stroke-miterlimit="3" fill="none" fill-rule="evenodd" transform="matrix(1.00059 0 0 1 162.045 -207.39)"/><path d="M6.87539 3.4377 0 0 6.87539-3.4377 6.87539 3.4377" stroke="#156082" stroke-width="0.976618" stroke-linecap="square" stroke-miterlimit="3" fill="#156082" fill-rule="evenodd" transform="matrix(-6.12685e-17 -1 1.00059 -6.12323e-17 168.974 346.158)"/><path d="M0 456.784 0 552.453 61.6441 552.453" stroke="#156082" stroke-width="0.976618" stroke-linecap="round" stroke-linejoin="round" stroke-miterlimit="3" fill="none" fill-rule="evenodd" transform="matrix(1.00059 0 0 1 55.4 -180.757)"/><path d="M6.87539 3.4377 0 0 6.87539-3.4377 6.87539 3.4377" stroke="#156082" stroke-width="0.976618" stroke-linecap="square" stroke-miterlimit="3" fill="#156082" fill-rule="evenodd" transform="matrix(-1.00059 0 0 -1 123.96 371.696)"/><path d="M-19.5322 521.712 19.5324 521.712 19.5324 532.113-19.5322 532.113Z" fill="#FFFFFF" fill-rule="evenodd" transform="matrix(1.00059 0 0 1 55.4 -180.757)"/><text font-family="SimSun,SimSun_MSFontService,sans-serif" font-weight="400" font-size="7.99997" transform="matrix(0.977195 0 0 0.976618 35.8561 349)">判定临界值</text><path d="M0 405.691 80.2826 405.691 80.2826 456.78-3.26652e-06 456.78Z" stroke="#000000" stroke-width="0.976618" stroke-linecap="square" stroke-miterlimit="3" fill="#FFFFFF" fill-rule="evenodd" transform="matrix(1.00059 0 0 1 267.644 -332.094)"/><text font-family="DengXian,DengXian_MSFontService,sans-serif" font-weight="400" font-size="10" transform="matrix(0.977195 0 0 0.976618 273.605 96)">人类给出操作指</text><text font-family="DengXian,DengXian_MSFontService,sans-serif" font-weight="400" font-size="10" transform="matrix(0.977195 0 0 0.976618 302.921 108)">令</text><path d="M0 449.86-89.4973 449.86" stroke="#156082" stroke-width="0.976618" stroke-linecap="round" stroke-linejoin="round" stroke-miterlimit="3" fill="none" fill-rule="evenodd" transform="matrix(1.00059 0 0 1 267.644 -350.718)"/><path d="M6.87539 3.4377 0 0 6.87539-3.4377 6.87539 3.4377" stroke="#156082" stroke-width="0.976618" stroke-linecap="square" stroke-miterlimit="3" fill="#156082" fill-rule="evenodd" transform="matrix(1.00059 -1.22465e-16 1.22537e-16 1 171.214 99.1416)"/><path d="M0 456.784 0 485.848 37.8928 485.848 37.8928 523.516" stroke="#156082" stroke-width="0.976618" stroke-linecap="round" stroke-linejoin="round" stroke-miterlimit="3" fill="none" fill-rule="evenodd" transform="matrix(1.00059 0 0 1 131.052 -332.094)"/><path d="M6.87539 3.4377 0 0 6.87539-3.4377 6.87539 3.4377" stroke="#156082" stroke-width="0.976618" stroke-linecap="square" stroke-miterlimit="3" fill="#156082" fill-rule="evenodd" transform="matrix(-6.12685e-17 -1 1.00059 -6.12323e-17 168.967 198.298)"/><path d="M3.24865 481.687 34.5003 481.687 34.5003 492.088 3.24865 492.088Z" fill="#FFFFFF" fill-rule="evenodd" transform="matrix(1.00059 0 0 1 131.052 -332.094)"/><text font-family="SimSun,SimSun_MSFontService,sans-serif" font-weight="400" font-size="7.99997" transform="matrix(0.977195 0 0 0.976618 134.306 157)">动作指令</text><path d="M6.92422 456.784 6.92422 242.182" stroke="#156082" stroke-width="0.976618" stroke-linecap="round" stroke-linejoin="round" stroke-miterlimit="3" fill="none" fill-rule="evenodd" transform="matrix(1.00059 0 0 1 465.36 -110.625)"/><path d="M6.87539 3.4377 0 0 6.87539-3.4377 6.87539 3.4377" stroke="#156082" stroke-width="0.976618" stroke-linecap="square" stroke-miterlimit="3" fill="#156082" fill-rule="evenodd" transform="matrix(-6.12685e-17 1 -1.00059 -6.12323e-17 472.288 124.681)"/><path d="M-17.9019 373.512 28.9756 373.512 28.9756 383.913-17.9019 383.913Z" fill="#FFFFFF" fill-rule="evenodd" transform="matrix(1.00059 0 0 1 465.36 -110.625)"/><text font-family="SimSun,SimSun_MSFontService,sans-serif" font-weight="400" font-size="7.99997" transform="matrix(0.977195 0 0 0.976618 447.448 271)">残差控制微调</text><path d="M0 456.784 258.149 456.784 258.149 364.493" stroke="#156082" stroke-width="0.976618" stroke-linecap="round" stroke-linejoin="round" stroke-miterlimit="3" fill="none" fill-rule="evenodd" transform="matrix(1.00059 0 0 1 213.982 -232.934)"/><path d="M6.87539 3.4377 0 0 6.87539-3.4377 6.87539 3.4377" stroke="#156082" stroke-width="0.976618" stroke-linecap="square" stroke-miterlimit="3" fill="#156082" fill-rule="evenodd" transform="matrix(-6.12685e-17 1 -1.00059 -6.12323e-17 472.284 124.684)"/><path d="M105.025 453.465 159.353 453.465 159.353 463.866 105.025 463.866Z" fill="#FFFFFF" fill-rule="evenodd" transform="matrix(1.00059 0 0 1 213.982 -232.934)"/><text font-family="Calibri,Calibri_MSFontService,sans-serif" font-weight="400" font-size="7.99997" transform="matrix(0.977195 0 0 0.976618 319.07 228)">CL</text><text font-family="SimSun,SimSun_MSFontService,sans-serif" font-weight="400" font-size="7.99997" transform="matrix(0.977195 0 0 0.976618 326.525 228)">模型直接输出</text><path d="M0 449.86-77.2212 449.86" stroke="#156082" stroke-width="0.976618" stroke-linecap="round" stroke-linejoin="round" stroke-miterlimit="3" fill="none" fill-rule="evenodd" transform="matrix(1.00059 0 0 1 432.12 -350.718)"/><path d="M6.87539 3.4377 0 0 6.87539-3.4377 6.87539 3.4377" stroke="#156082" stroke-width="0.976618" stroke-linecap="square" stroke-miterlimit="3" fill="#156082" fill-rule="evenodd" transform="matrix(1.00059 -1.22465e-16 1.22537e-16 1 347.974 99.1416)"/></g></svg>